<svg width="210" height="91" viewBox="0 0 210 91" fill="none" xmlns="http://www.w3.org/2000/svg">
<path d="M0 73.4157V90.9942C14.2339 90.6962 25.6812 79.0205 25.6812 64.6609V29.8023C25.6812 21.4974 31.0031 17.5667 34.4203 17.5667C37.8375 17.5667 43.1594 21.4974 43.1594 29.8023V61.1977C43.1594 76.1097 53.4978 91 69.3984 91C85.2991 91 95.6375 76.1097 95.6375 61.1977V29.8023C95.6375 21.4974 100.959 17.5667 104.377 17.5667C107.794 17.5667 113.116 21.4974 113.116 29.8023V61.1977C113.116 76.1097 123.454 91 139.355 91C155.255 91 165.594 76.1097 165.594 61.1977V29.8023C165.594 21.4974 170.916 17.5667 174.333 17.5667C177.75 17.5667 183.072 21.4975 183.072 29.8023V61.1977C183.072 76.1097 193.41 91 209.311 91C209.542 91 209.771 90.9969 210 90.9906V73.3833C209.764 73.4167 209.533 73.4333 209.311 73.4333C205.894 73.4333 200.572 69.5026 200.572 61.1977V29.8023C200.572 14.8903 190.233 0 174.333 0C158.432 0 148.094 14.8903 148.094 29.8023V61.1977C148.094 69.5026 142.772 73.4333 139.355 73.4333C135.937 73.4333 130.616 69.5026 130.616 61.1977V29.8023C130.616 14.8903 120.277 0 104.377 0C88.4759 0 78.1375 14.8903 78.1375 29.8023V61.1977C78.1375 69.5026 72.8156 73.4333 69.3984 73.4333C65.9812 73.4333 60.6594 69.5025 60.6594 61.1977V29.8023C60.6594 14.8903 50.321 0 34.4203 0C18.5196 0 8.18125 14.8903 8.18125 29.8023V64.6609C8.18125 69.3177 4.56653 73.127 0 73.4157Z" fill="#F5BD33"/>
</svg>
