<svg width="98" height="65" viewBox="0 0 98 65" fill="none" xmlns="http://www.w3.org/2000/svg">
<path d="M97.5 1.81e-05C79.5508 1.65309e-05 65 14.5508 65 32.5L97.5 32.5L97.5 1.81e-05Z" fill="#47C2BB"/>
<path d="M32.5 1.14441e-05C32.5 17.9493 17.9493 32.5 4.19617e-05 32.5L4.62235e-05 7.18223e-06L32.5 1.14441e-05Z" fill="#47C2BB"/>
<path d="M65 32.5C82.9493 32.5 97.5 47.0507 97.5 65L65 65L65 32.5Z" fill="#47C2BB"/>
<path d="M32.5 1.14441e-05C32.5 17.9493 47.0508 32.5 65 32.5L65 1.5706e-05L32.5 1.14441e-05Z" fill="#47C2BB"/>
</svg>
