<svg width="107" height="54" viewBox="0 0 107 54" fill="none" xmlns="http://www.w3.org/2000/svg">
<path fill-rule="evenodd" clip-rule="evenodd" d="M54 33C65.598 33 75 42.402 75 54L65.545 54C65.545 47.6239 60.3761 42.455 54 42.455C47.6239 42.455 42.455 47.6239 42.455 54L33 54C33 42.402 42.402 33 54 33Z" fill="#CFDA54"/>
<path fill-rule="evenodd" clip-rule="evenodd" d="M53.5 9.35424e-06C83.0473 1.71277e-05 107 24.1766 107 54L97.5976 54C97.5976 29.418 77.8544 9.49034 53.5 9.49034C29.1456 9.49033 9.40247 29.418 9.40247 54L5.81714e-06 54C1.36147e-05 24.1766 23.9528 1.58079e-06 53.5 9.35424e-06Z" fill="#CFDA54"/>
<path fill-rule="evenodd" clip-rule="evenodd" d="M53.5 17C73.6584 17 90 33.5655 90 54L80.6773 54C80.6773 38.7848 68.5096 26.4504 53.5 26.4504C38.4904 26.4504 26.3227 38.7848 26.3227 54L17 54C17 33.5655 33.3416 17 53.5 17Z" fill="#CFDA54"/>
</svg>
