<svg width="62" height="48" viewBox="0 0 62 48" fill="none" xmlns="http://www.w3.org/2000/svg">
<path fill-rule="evenodd" clip-rule="evenodd" d="M8.54681 23.9624C8.54681 24.8335 9.24276 25.5356 10.0919 25.5211L15.4288 25.4298C23.9862 25.2835 31 32.3592 31 41.1384L31 43.6164C31 46.0374 29.0867 48 26.7266 48C24.3665 48 22.4532 46.0374 22.4532 43.6164L22.4532 41.1384C22.4532 37.2583 19.3533 34.1311 15.5712 34.1957L10.2343 34.287C4.60988 34.3832 -7.98491e-07 29.7326 -1.05072e-06 23.9624C-1.30294e-06 18.1922 4.60973 13.5417 10.2341 13.6378L15.5711 13.7289C19.3533 13.7935 22.4532 10.6662 22.4532 6.78599L22.4532 4.38356C22.4532 1.96258 24.3665 -1.06509e-06 26.7266 -1.16826e-06C29.0867 -1.27142e-06 31 1.96258 31 4.38356L31 6.78599C31 15.5652 23.9863 22.6409 15.4289 22.4948L10.0919 22.4037C9.24274 22.3892 8.54681 23.0913 8.54681 23.9624Z" fill="#FFC34F"/>
<path fill-rule="evenodd" clip-rule="evenodd" d="M39.5468 23.9624C39.5468 24.8335 40.2428 25.5356 41.0919 25.5211L46.4288 25.4298C54.9862 25.2835 62 32.3592 62 41.1384L62 43.6164C62 46.0374 60.0867 48 57.7266 48C55.3665 48 53.4532 46.0374 53.4532 43.6164L53.4532 41.1384C53.4532 37.2583 50.3533 34.1311 46.5712 34.1957L41.2343 34.287C35.6099 34.3832 31 29.7326 31 23.9624C31 18.1922 35.6097 13.5417 41.2341 13.6378L46.5711 13.7289C50.3533 13.7935 53.4532 10.6662 53.4532 6.78599L53.4532 4.38356C53.4532 1.96258 55.3665 -1.06509e-06 57.7266 -1.16826e-06C60.0867 -1.27142e-06 62 1.96258 62 4.38356L62 6.78599C62 15.5652 54.9863 22.6409 46.4289 22.4948L41.0919 22.4037C40.2427 22.3892 39.5468 23.0913 39.5468 23.9624Z" fill="#FFC34F"/>
</svg>
